<?xml version="1.0" encoding="UTF-8" standalone="no"?>
<svg
   xmlns:dc="http://purl.org/dc/elements/1.1/"
   xmlns:cc="http://creativecommons.org/ns#"
   xmlns:rdf="http://www.w3.org/1999/02/22-rdf-syntax-ns#"
   xmlns:svg="http://www.w3.org/2000/svg"
   xmlns="http://www.w3.org/2000/svg"
   xmlns:sodipodi="http://sodipodi.sourceforge.net/DTD/sodipodi-0.dtd"
   xmlns:inkscape="http://www.inkscape.org/namespaces/inkscape"
   version="1.1"
   id="svg2"
   xml:space="preserve"
   width="591.21332"
   height="107.44"
   viewBox="0 0 591.21332 107.44"
   sodipodi:docname="CC_Argentina_Lockup_Horizontal.eps"><metadata
     id="metadata8"><rdf:RDF><cc:Work
         rdf:about=""><dc:format>image/svg+xml</dc:format><dc:type
           rdf:resource="http://purl.org/dc/dcmitype/StillImage" /></cc:Work></rdf:RDF></metadata><defs
     id="defs6" /><sodipodi:namedview
     pagecolor="#ffffff"
     bordercolor="#666666"
     borderopacity="1"
     objecttolerance="10"
     gridtolerance="10"
     guidetolerance="10"
     inkscape:pageopacity="0"
     inkscape:pageshadow="2"
     inkscape:window-width="640"
     inkscape:window-height="480"
     id="namedview4" /><g
     id="g10"
     inkscape:groupmode="layer"
     inkscape:label="ink_ext_XXXXXX"
     transform="matrix(1.3333333,0,0,-1.3333333,0,107.44)"><g
       id="g12"
       transform="scale(0.1)"><path
         d="m 1640.21,749.922 c 0,0 -43.76,-17.551 -94.86,-73.828 -51.29,-56.446 -80.68,-119.59 -58.79,-136.281 8.47,-6.485 27.9,-7.508 63.3,24.359 27.69,24.793 55.8,57.254 74.79,103.766 22.87,55.742 15.56,81.339 15.56,81.984 M 1919.74,648.84 c -56.76,28.973 -98.29,64.488 -141.42,86.695 -41.2,21.094 -67.71,29.895 -100.99,25.442 -5.58,-0.754 -13.73,-3.497 -13.73,-3.497 0,0 17.29,-58.417 -51.06,-156.816 -69.01,-99.629 -131.56,-99.16 -149.39,-71.57 -18.67,28.855 5.38,87.82 45.51,140.301 42.16,54.773 116.1,100.32 116.1,100.32 0,0 -23.49,14.375 -81.45,-18.457 -56.44,-32.02 -153.97,-108.16 -244.11,-236.656 -90.03,-128.332 -108.07,-199.055 -120.94,-254.739 -12.98,-55.527 -1.07,-115.246 60.53,-115.246 61.7,0 133.39,94.211 153.65,126.938 37.67,60.945 62.15,154.461 11.05,141.59 -25.33,-6.379 -45.81,-34.446 -58.58,-61.211 -13.3,-27.696 -18.55,-54.141 -18.55,-54.141 0,0 -21.37,-7.625 -50.03,-29.031 -28.63,-21.457 -47.42,-41.953 -47.42,-41.953 0,0 0.22,44.48 35.73,116.421 35.31,72.012 100.34,104.895 137.24,107.961 33.28,2.786 76.42,-25.437 39.93,-129.582 C 1405.32,217.527 1297.28,91.3945 1183.85,89.5586 1079,88.1758 1010.44,221.875 1156.15,455.039 c 161.08,258.016 350.36,337.156 411.85,346.063 61.38,8.847 81.43,-18.243 81.43,-18.243 0,0 51.41,23.821 116.65,19.375 75.22,-5.156 133.28,-58.222 209.78,-95.449 -20.06,-19.375 -39.06,-39.336 -56.12,-57.945 m 336.93,86.91 c -51.92,-33.367 -123.82,-63.621 -193.05,-57.078 -17.47,-18.074 -36.15,-38.899 -55.05,-61.863 120.09,-23.606 224.93,50.64 280.83,113.953 34.77,39.492 51.93,74.793 51.93,74.793 0,0 -33.25,-36.746 -84.66,-69.805 M 2097.23,397.852 c 1.61,2.625 2.13,5.039 2.13,5.039 0,0 -1.19,10.097 -10.93,10.515 -11.38,0.434 -26.94,-1.707 -67.72,-46.941 -40.67,-45.02 -65.34,-84.121 -86.8,-123.289 -23.4,-42.66 -32.84,-74.477 -19.31,-82.738 3.75,-2.364 9.53,-2.516 14.15,-1.446 9.01,2.309 19.33,10.781 35.09,28.918 7.41,8.485 15.46,20.559 25.23,33.965 26.94,36.746 94.74,152.637 108.16,175.977 m -424.29,-49.356 c 6.86,17.813 15.45,52.793 -2.69,66.426 -19.3,14.695 -68.79,-19.59 -68.98,-54.727 -0.23,-35.847 34.86,-52.148 43.34,-54.355 4.82,-1.399 6.44,-1.184 8.8,2.683 1.39,2.524 12.76,22.114 19.53,39.973 m -37.24,-65.398 c -1.39,0.425 -17.39,7.722 -34.01,21.558 -16.63,13.852 -25.01,29.731 -25.64,31.02 -0.64,1.179 -1.4,0.262 -2.16,-0.754 -0.64,-0.969 -3.74,-3.652 -30.03,-42.395 -26.41,-38.726 -66.86,-118.777 -30.16,-132.293 23.51,-8.64 62.56,32.356 83.81,59.657 19.74,25.324 38.31,57.511 39.37,59.875 1.08,2.254 0.1,2.839 -1.18,3.332 m 415.37,-92.289 c -9.86,-15.829 -21.13,-46.414 11.7,-27.313 39.81,23.184 96.89,109.609 96.89,109.609 h 25.77 c 0,0 -33.91,-53.75 -78.13,-102.792 -40.65,-44.961 -90.13,-85.7349 -124.9,-81.8052 -40.76,4.8594 -28.01,58.2502 -28.01,58.2502 0,0 -58.37,-62.0314 -98.61,-57.7267 -54.29,6.1054 -37.77,73.4027 -37.77,73.4027 0,0 -61.49,-75.6957 -103.33,-73.4027 -65.67,3.9765 -49.25,84.1837 -31.01,140.1877 9.77,30.058 18.99,53.769 18.99,53.769 0,0 -6.65,-1.777 -20.71,-3.761 -7.19,-1.075 -20.6,-1.825 -20.6,-1.825 0,0 -27.25,-48.339 -49.14,-77.414 -21.9,-29.129 -114.83,-129.0896 -169.65,-108.9724 -50.65,18.3474 -33.91,96.0434 -4.51,157.5314 43.04,89.812 163.96,218.894 233.7,201.988 72.22,-17.539 1.61,-149.578 1.61,-149.578 0,0 0.12,-0.43 0.76,-0.691 1.51,-0.649 5.26,-1.028 13.96,0.691 13.82,2.637 26.5,7.949 26.5,7.949 0,0 72.64,152.254 152.9,251.895 80.26,99.629 240.47,271.308 303.35,229.793 15.46,-10.145 8.48,-45.352 -12.24,-87.996 -9.22,-2.903 -18.67,-5.469 -28.41,-7.453 13.93,25.109 23.04,46.3 25.75,61.152 9.43,51.406 -110.74,-57.031 -196.58,-173.875 -85.75,-116.856 -137.27,-222.609 -137.27,-222.609 0,0 17.39,9.828 44.33,31.605 28.23,22.691 66.85,58.316 108.91,101.824 28.43,29.297 61.7,66.106 92.94,107.196 9.23,0.492 18.34,1.398 27.24,2.792 -34.77,-46.777 -71.25,-89.597 -102.36,-121.035 -34.13,-34.597 -71.14,-71.953 -103.56,-99.097 -51.17,-43.125 -90.76,-67.551 -90.76,-67.551 0,0 -75.12,-151.348 -34.35,-161.067 24.04,-5.73 71.48,67.395 71.48,67.395 0,0 61.79,94.375 99.14,136.875 50.76,57.883 94.64,91.355 138.43,91.953 25.52,0.527 40.55,-26.66 40.55,-26.66 l 11.91,18.555 h 74.03 c 0,0 -137.76,-234.129 -148.94,-251.789 m 205.6,544.941 c -51.92,-33.367 -123.82,-63.621 -193.05,-57.078 -17.47,-18.074 -36.15,-38.899 -55.05,-61.863 120.09,-23.606 224.93,50.64 280.83,113.953 34.77,39.492 51.93,74.793 51.93,74.793 0,0 -33.25,-36.746 -84.66,-69.805 M 1219.58,620.398 h -70.29 l -39.69,-64.277 h 70.27 z M 887.043,398.066 c 29.832,40.938 112.344,184.512 112.344,184.512 0,0 -1.496,10.09 -11.157,10.52 -11.375,0.476 -30.261,-3.332 -68.132,-50.657 -37.891,-47.312 -67.071,-85.089 -88.418,-124.199 -23.399,-42.765 -33.7,-72.969 -20.188,-81.062 3.656,-2.317 9.563,-2.59 14.067,-1.504 8.796,2.137 20.281,10.945 35.945,29.129 7.297,8.535 15.762,19.851 25.539,33.261 M 509.98,591.973 c -19.421,14.699 -68.789,-19.7 -69.003,-54.727 -0.313,-36.008 44.648,-46.25 50.332,-46.465 0,0 5.039,-1.394 7.082,2.903 1.277,2.625 7.285,13.953 14.168,31.754 6.75,17.863 15.437,52.855 -2.579,66.535 M 480.684,468.254 c -1.18,0.367 -19.95,5.738 -38.106,17.32 -18.125,11.692 -26.484,28.977 -27.137,30.156 -0.761,1.125 -1.398,0.266 -2.14,-0.75 -0.75,-0.964 -4.727,-6.015 -31.024,-44.746 -26.386,-38.742 -65.441,-118.144 -28.847,-131.726 23.472,-8.684 62.859,32.578 84.109,59.832 19.746,25.32 43.359,64.219 44.324,66.465 0.969,2.363 0.102,2.898 -1.179,3.449 m 574.086,-23.676 h 25.74 c 0,0 -128.877,-186.375 -201.733,-177.957 -40.886,4.668 -28.867,54.942 -28.867,54.942 0,0 -57.09,-66.961 -109.441,-53.653 -47.539,12.18 -16.848,91.367 -16.848,91.367 -5.484,-2.136 -108.484,-118.347 -180.711,-90.515 -75.644,29.246 -36.472,126.406 -22.109,155.593 12.258,24.629 25.652,48.719 25.652,48.719 0,0 -11.59,-3.328 -18.765,-4.988 -7.2,-1.668 -18.247,-3.809 -18.247,-3.809 0,0 -35.742,-58.222 -57.632,-87.297 -21.77,-29.019 -114.805,-128.972 -169.641,-109.07 -54.832,19.949 -41.316,96.633 -10.527,157.52 49.914,98.886 168.371,220.246 239.621,202.168 72.105,-18.41 12.566,-135.418 12.566,-135.418 0,0 14.363,-1.828 48.699,21.621 49.477,33.75 114.719,124.637 185.434,114.012 33.25,-4.942 64.156,-39.063 21.894,-103.821 -13.539,-20.711 -36.281,-39.383 -53.769,-21.031 -10.727,11.363 -1.281,32.195 10.074,46.512 16.008,20.222 38.11,17.441 38.11,17.441 0,0 11.687,26.816 -17.922,26.348 -24.16,-0.547 -84.883,-56.614 -119.325,-113.321 -31.543,-51.992 -79.191,-140.675 -31.222,-159.929 43.887,-17.766 127.566,81.66 166.316,133.59 38.645,52.152 126.946,170.187 200.996,175.121 25.325,1.609 40.657,-21.68 40.657,-21.68 l 8.57,13.57 h 73.94 c 0,0 -139.385,-232.898 -150.335,-250.554 -8.574,-13.836 -19.949,-44.844 11.594,-27.414 31.555,17.492 97.231,101.933 97.231,101.933 M 1014.63,71.4258 C 958.508,110.809 890.371,128.086 828.352,125.723 765.676,123.059 737.559,76.3164 737.559,76.3164 709.23,125.723 653.328,155.938 566.941,155.242 427.461,153.586 289.148,89.0313 179.484,89.0313 74.3086,89.0313 -2.51953,155.242 0.0585938,272.578 4.46484,478.223 178.398,663.809 308.242,747.234 c 74.793,48.125 137.344,62.286 178.242,57.735 29.817,-3.328 65.774,-37.774 43.125,-88.582 -33.261,-74.414 -79.187,-68.289 -77.468,-32.625 0.855,23.023 16.304,37.613 27.898,45.554 7.297,5.098 20.274,6.543 27.149,6.707 6.433,5.579 11.484,46.192 -42.059,32.786 C 411.57,755.391 347.09,702.922 285.703,635.059 224.324,567.285 128.828,438.848 105.215,304.016 94.1602,241.563 101.57,127.715 249.531,128.934 c 125.578,1.086 310.774,83.879 480.957,82.328 66.094,-0.547 123.606,-18.301 168.36,-46.157 44.211,-27.144 97.011,-66.687 115.782,-93.6792"
         style="fill:#100f0d;fill-opacity:1;fill-rule:nonzero;stroke:none"
         id="path14" /><path
         d="m 2588.14,187.727 -57.76,143.203 -58.16,-143.203 z m 14.05,-34.497 h -144.01 l -31.29,-77.0191 h -42.11 L 2505.92,365.02 h 49.33 L 2675.99,76.2109 h -42.92 l -30.88,77.0191"
         style="fill:#100f0d;fill-opacity:1;fill-rule:nonzero;stroke:none"
         id="path16" /><path
         d="m 2850.88,295.625 v -36.094 c -7.49,1.602 -14.98,2.403 -22.46,2.403 -21.13,0 -38.45,-5.684 -51.95,-17.051 -13.5,-11.367 -20.26,-27.344 -20.26,-47.93 V 76.2109 h -38.5 V 294.824 h 36.5 V 260.73 c 8.03,12.833 18.92,22.258 32.69,28.286 13.77,6.011 27.74,9.019 41.92,9.019 8.28,0 15.64,-0.801 22.06,-2.41"
         style="fill:#100f0d;fill-opacity:1;fill-rule:nonzero;stroke:none"
         id="path18" /><path
         d="m 3010.72,129.363 c 11.63,5.742 20.86,14.035 27.68,24.864 6.81,10.832 10.23,23.605 10.23,38.312 0,14.441 -3.42,27.141 -10.23,38.106 -6.82,10.964 -16.11,19.453 -27.88,25.468 -11.77,6.028 -24.74,9.032 -38.91,9.032 -14.18,0 -26.94,-3.086 -38.31,-9.227 -11.37,-6.152 -20.25,-14.707 -26.67,-25.676 -6.42,-10.965 -9.63,-23.531 -9.63,-37.703 0,-14.18 3.21,-26.672 9.63,-37.512 6.42,-10.828 15.3,-19.246 26.67,-25.261 11.37,-6.016 24.13,-9.024 38.31,-9.024 14.44,0 27.48,2.871 39.11,8.621 z m 76.02,165.461 V 96.6719 c 0,-19.5235 -4.88,-36.5664 -14.65,-51.1446 -9.76,-14.5703 -23.4,-25.8007 -40.91,-33.6914 C 3013.66,3.94531 2993.54,0 2970.81,0 c -35.04,0 -66.05,6.95313 -93.06,20.8594 l 14.44,32.4922 c 24.6,-12.836 50.67,-19.2578 78.22,-19.2578 23.26,0 42.05,5.6796 56.36,17.0468 14.3,11.3711 21.45,26.9453 21.45,46.7305 v 24.8709 c -9.09,-11.765 -20.39,-20.855 -33.88,-27.2732 -13.51,-6.4141 -28.96,-9.629 -46.34,-9.629 -21.4,0 -40.45,4.6094 -57.16,13.8399 -16.71,9.2263 -29.68,21.9923 -38.91,38.3083 -9.22,16.309 -13.83,34.492 -13.83,54.551 0,20.059 4.61,38.313 13.83,54.758 9.23,16.441 22.2,29.344 38.91,38.699 16.71,9.363 35.76,14.043 57.16,14.043 17.92,0 33.83,-3.547 47.73,-10.625 13.91,-7.09 25.41,-17.051 34.5,-29.883 v 35.293 h 36.51"
         style="fill:#100f0d;fill-opacity:1;fill-rule:nonzero;stroke:none"
         id="path20" /><path
         d="m 3199.05,248.691 c -13.38,-11.23 -21.8,-26.613 -25.27,-46.125 h 148.42 c -2.68,18.45 -10.64,33.555 -23.87,45.325 -13.24,11.765 -30.03,17.656 -50.34,17.656 -19.26,0 -35.58,-5.613 -48.94,-16.856 z m 160.45,-77.812 h -185.72 c 2.94,-20.059 11.76,-35.969 26.47,-47.734 14.7,-11.766 33.29,-17.649 55.76,-17.649 28.07,0 50.81,8.684 68.19,26.074 l 22.86,-26.472 c -9.09,-10.1644 -21.45,-18.3871 -37.1,-24.6683 -15.64,-6.2891 -33.77,-9.4336 -54.35,-9.4336 -24.34,0 -45.73,4.9492 -64.18,14.8437 -18.45,9.8907 -32.63,23.5232 -42.52,40.9182 -9.9,17.375 -14.85,37.031 -14.85,58.965 0,21.125 4.82,40.437 14.45,57.961 9.62,17.507 23.06,31.289 40.31,41.316 17.24,10.027 36.96,15.039 59.17,15.039 22.72,0 42.64,-5.148 59.76,-15.437 17.11,-10.305 30.29,-24.211 39.52,-41.719 9.21,-17.524 13.83,-36.848 13.83,-57.961 0,-4.285 -0.53,-8.965 -1.6,-14.043"
         style="fill:#100f0d;fill-opacity:1;fill-rule:nonzero;stroke:none"
         id="path22" /><path
         d="m 3586.13,277.371 c 16.31,-15.105 24.47,-35.359 24.47,-60.769 V 76.2109 h -38.51 V 209.387 c 0,17.105 -5.08,30.547 -15.24,40.308 -10.17,9.758 -24.6,14.641 -43.32,14.641 -13.37,0 -25.27,-2.539 -35.7,-7.617 -10.43,-5.078 -18.52,-11.973 -24.27,-20.656 -5.76,-8.7 -8.63,-18.524 -8.63,-29.481 V 76.2109 h -38.5 V 294.824 h 36.5 v -30.09 c 9.09,12.309 20.46,21.262 34.09,26.887 13.64,5.613 28.21,8.418 43.73,8.418 27.28,0 49.06,-7.559 65.38,-22.668"
         style="fill:#100f0d;fill-opacity:1;fill-rule:nonzero;stroke:none"
         id="path24" /><path
         d="M 3801.13,115.129 V 80.625 c -9.89,-5.3437 -23.13,-8.0195 -39.7,-8.0195 -25.15,0 -44.4,6.4179 -57.77,19.25 -13.38,12.8395 -20.06,30.4885 -20.06,52.9495 v 117.531 h -37.3 v 32.488 h 37.7 v 51.746 l 38.11,18.047 v -69.793 h 77.02 v -32.488 h -77.02 V 149.617 c 0,-13.64 3.94,-24.004 11.84,-31.082 7.88,-7.09 18.51,-10.637 31.89,-10.637 12.03,0 23.79,2.415 35.29,7.231"
         style="fill:#100f0d;fill-opacity:1;fill-rule:nonzero;stroke:none"
         id="path26" /><path
         d="m 3847.26,294.824 h 38.51 V 76.2109 h -38.51 z m 1.21,39.719 c -4.82,4.539 -7.23,10.281 -7.23,17.242 0,6.953 2.41,12.695 7.23,17.246 4.81,4.543 10.83,6.821 18.04,6.821 7.22,0 13.25,-2.278 18.05,-6.821 4.82,-4.551 7.23,-10.293 7.23,-17.246 0,-6.961 -2.41,-12.703 -7.23,-17.242 -4.8,-4.555 -10.83,-6.828 -18.05,-6.828 -7.21,0 -13.23,2.273 -18.04,6.828"
         style="fill:#100f0d;fill-opacity:1;fill-rule:nonzero;stroke:none"
         id="path28" /><path
         d="m 4129.25,277.371 c 16.31,-15.105 24.46,-35.359 24.46,-60.769 V 76.2109 h -38.5 V 209.387 c 0,17.105 -5.08,30.547 -15.25,40.308 -10.17,9.758 -24.6,14.641 -43.32,14.641 -13.37,0 -25.26,-2.539 -35.69,-7.617 -10.43,-5.078 -18.53,-11.973 -24.27,-20.656 -5.76,-8.7 -8.63,-18.524 -8.63,-29.481 V 76.2109 h -38.51 V 294.824 h 36.5 v -30.09 c 9.1,12.309 20.46,21.262 34.1,26.887 13.64,5.613 28.21,8.418 43.73,8.418 27.27,0 49.06,-7.559 65.38,-22.668"
         style="fill:#100f0d;fill-opacity:1;fill-rule:nonzero;stroke:none"
         id="path30" /><path
         d="m 4340.84,121.941 c 15.91,11.497 24.67,29.946 26.27,55.356 h -56.95 c -49.75,0 -74.61,-12.434 -74.61,-37.309 0,-10.965 4.61,-19.59 13.83,-25.867 9.23,-6.289 21.46,-9.426 36.7,-9.426 20.6,0 38.84,5.743 54.76,17.246 z M 4434.1,109.91 V 77.8203 c -4.81,-2.1367 -11.1,-3.2109 -18.86,-3.2109 -12.03,0 -22.46,3.0664 -31.28,9.2304 -8.82,6.1407 -14.04,15.0938 -15.64,26.8752 -8.83,-12.8439 -20.8,-22.6095 -35.91,-29.2892 -15.11,-6.6797 -31.62,-10.0313 -49.53,-10.0313 -24.34,0 -44.73,5.8789 -61.17,17.6602 -16.45,11.7543 -24.67,28.3363 -24.67,49.7343 0,21.926 9.42,39.109 28.27,51.543 18.86,12.434 46.87,18.652 84.05,18.652 h 57.75 v 2.813 c 0,16.844 -5.68,29.941 -17.04,39.305 -11.37,9.359 -26.68,14.043 -45.93,14.043 -12.3,0 -24.61,-2.008 -36.9,-6.024 -12.31,-4.004 -23.01,-9.758 -32.09,-17.246 l -21.26,28.074 c 11.49,9.895 25.4,17.317 41.72,22.27 16.3,4.949 33.01,7.422 50.13,7.422 30.49,0 54.62,-7.621 72.4,-22.864 17.79,-15.246 26.67,-36.242 26.67,-62.976 v -88.254 c 0,-11.77 6.03,-17.649 18.06,-17.649 4.28,0 8.02,0.665 11.23,2.012"
         style="fill:#100f0d;fill-opacity:1;fill-rule:nonzero;stroke:none"
         id="path32" /></g></g></svg>
